<svg xmlns="http://www.w3.org/2000/svg" viewBox="0 0 512 512">
  <defs>
    <linearGradient id="favBg" x1="0%" y1="0%" x2="100%" y2="100%">
      <stop offset="0%" stop-color="#C4A572"/>
      <stop offset="100%" stop-color="#A07850"/>
    </linearGradient>
  </defs>

  <!-- 外圆 -->
  <circle cx="256" cy="256" r="240" fill="url(#favBg)"/>

  <!-- 简化对话气泡，比例更大更醒目 -->
  <path d="M140 172
           C140 152 158 136 182 136
           L330 136
           C354 136 372 152 372 172
           L372 300
           C372 320 354 336 330 336
           L288 336
           L256 384
           L224 336
           L182 336
           C158 336 140 320 140 300
           Z"
        fill="#FAF8F3"/>

  <!-- 粗横线，小尺寸下更清楚 -->
  <rect x="184" y="204" width="144" height="16" rx="8" fill="#B8956A" opacity="0.65"/>
  <rect x="184" y="248" width="104" height="16" rx="8" fill="#B8956A" opacity="0.45"/>

  <!-- 四角星光，更大更醒目 -->
  <g transform="translate(346, 168)">
    <ellipse cx="0" cy="0" rx="5" ry="18" fill="#FFF8F0"/>
    <ellipse cx="0" cy="0" rx="18" ry="5" fill="#FFF8F0"/>
    <circle cx="0" cy="0" r="7" fill="#FFF"/>
  </g>
</svg>